<mxfile host="app.diagrams.net" modified="2023-09-07T05:35:01.602Z" agent="Mozilla/5.0 (Windows NT 10.0; Win64; x64) AppleWebKit/537.36 (KHTML, like Gecko) Chrome/116.0.0.0 Safari/537.36" etag="g3VyXkTXPvK23H_NJRM1" version="21.7.2" type="device">
  <diagram name="Page-1" id="7e0a89b8-554c-2b80-1dc8-d5c74ca68de4">
    <mxGraphModel dx="1477" dy="617" grid="1" gridSize="10" guides="1" tooltips="1" connect="1" arrows="1" fold="1" page="1" pageScale="1" pageWidth="1100" pageHeight="850" background="none" math="0" shadow="0">
      <root>
        <mxCell id="0" />
        <mxCell id="1" parent="0" />
        <mxCell id="lf7gtlG47ufux9Utgd1f-178" value="" style="rounded=0;whiteSpace=wrap;html=1;labelBackgroundColor=none;fontSize=17;fillColor=#f9f7ed;strokeColor=#36393d;" parent="1" vertex="1">
          <mxGeometry x="595" y="20" width="275" height="125" as="geometry" />
        </mxCell>
        <mxCell id="lf7gtlG47ufux9Utgd1f-154" value="" style="rounded=0;whiteSpace=wrap;html=1;labelBackgroundColor=#FFFFFFF;fontSize=12;fillColor=#f8cecc;strokeColor=#b85450;" parent="1" vertex="1">
          <mxGeometry x="835" y="320" width="155" height="350" as="geometry" />
        </mxCell>
        <mxCell id="lf7gtlG47ufux9Utgd1f-1" value="MCU" style="whiteSpace=wrap;html=1;aspect=fixed;" parent="1" vertex="1">
          <mxGeometry x="370" y="245" width="360" height="360" as="geometry" />
        </mxCell>
        <mxCell id="lf7gtlG47ufux9Utgd1f-6" value="" style="group" parent="1" vertex="1" connectable="0">
          <mxGeometry x="420" y="160" width="50" height="60" as="geometry" />
        </mxCell>
        <mxCell id="lf7gtlG47ufux9Utgd1f-4" value="" style="rounded=0;whiteSpace=wrap;html=1;" parent="lf7gtlG47ufux9Utgd1f-6" vertex="1">
          <mxGeometry width="50" height="60" as="geometry" />
        </mxCell>
        <mxCell id="lf7gtlG47ufux9Utgd1f-5" value="" style="shape=image;verticalLabelPosition=bottom;labelBackgroundColor=default;verticalAlign=top;aspect=fixed;imageAspect=0;image=https://upload.wikimedia.org/wikipedia/commons/thumb/0/02/Optoisolator_Pinout.svg/1200px-Optoisolator_Pinout.svg.png;direction=north;" parent="lf7gtlG47ufux9Utgd1f-6" vertex="1">
          <mxGeometry x="9.004999999999995" y="3.335000000000008" width="32" height="53.33" as="geometry" />
        </mxCell>
        <mxCell id="lf7gtlG47ufux9Utgd1f-9" value="" style="group" parent="1" vertex="1" connectable="0">
          <mxGeometry x="480" y="160" width="50" height="60" as="geometry" />
        </mxCell>
        <mxCell id="lf7gtlG47ufux9Utgd1f-10" value="" style="rounded=0;whiteSpace=wrap;html=1;" parent="lf7gtlG47ufux9Utgd1f-9" vertex="1">
          <mxGeometry width="50" height="60" as="geometry" />
        </mxCell>
        <mxCell id="lf7gtlG47ufux9Utgd1f-11" value="" style="shape=image;verticalLabelPosition=bottom;labelBackgroundColor=default;verticalAlign=top;aspect=fixed;imageAspect=0;image=https://upload.wikimedia.org/wikipedia/commons/thumb/0/02/Optoisolator_Pinout.svg/1200px-Optoisolator_Pinout.svg.png;direction=north;" parent="lf7gtlG47ufux9Utgd1f-9" vertex="1">
          <mxGeometry x="9.004999999999995" y="3.335000000000008" width="32" height="53.33" as="geometry" />
        </mxCell>
        <mxCell id="lf7gtlG47ufux9Utgd1f-12" value="" style="group" parent="1" vertex="1" connectable="0">
          <mxGeometry x="540" y="160" width="50" height="60" as="geometry" />
        </mxCell>
        <mxCell id="lf7gtlG47ufux9Utgd1f-13" value="" style="rounded=0;whiteSpace=wrap;html=1;" parent="lf7gtlG47ufux9Utgd1f-12" vertex="1">
          <mxGeometry width="50" height="60" as="geometry" />
        </mxCell>
        <mxCell id="lf7gtlG47ufux9Utgd1f-14" value="" style="shape=image;verticalLabelPosition=bottom;labelBackgroundColor=default;verticalAlign=top;aspect=fixed;imageAspect=0;image=https://upload.wikimedia.org/wikipedia/commons/thumb/0/02/Optoisolator_Pinout.svg/1200px-Optoisolator_Pinout.svg.png;direction=north;" parent="lf7gtlG47ufux9Utgd1f-12" vertex="1">
          <mxGeometry x="9.004999999999995" y="3.335000000000008" width="32" height="53.33" as="geometry" />
        </mxCell>
        <mxCell id="lf7gtlG47ufux9Utgd1f-15" value="" style="group" parent="1" vertex="1" connectable="0">
          <mxGeometry x="600" y="160" width="50" height="60" as="geometry" />
        </mxCell>
        <mxCell id="lf7gtlG47ufux9Utgd1f-16" value="" style="rounded=0;whiteSpace=wrap;html=1;" parent="lf7gtlG47ufux9Utgd1f-15" vertex="1">
          <mxGeometry width="50" height="60" as="geometry" />
        </mxCell>
        <mxCell id="lf7gtlG47ufux9Utgd1f-17" value="" style="shape=image;verticalLabelPosition=bottom;labelBackgroundColor=default;verticalAlign=top;aspect=fixed;imageAspect=0;image=https://upload.wikimedia.org/wikipedia/commons/thumb/0/02/Optoisolator_Pinout.svg/1200px-Optoisolator_Pinout.svg.png;direction=south;" parent="lf7gtlG47ufux9Utgd1f-15" vertex="1">
          <mxGeometry x="9.004999999999995" y="3.335000000000008" width="32" height="53.33" as="geometry" />
        </mxCell>
        <mxCell id="lf7gtlG47ufux9Utgd1f-21" value="" style="group" parent="1" vertex="1" connectable="0">
          <mxGeometry x="720" y="160" width="50" height="60" as="geometry" />
        </mxCell>
        <mxCell id="lf7gtlG47ufux9Utgd1f-22" value="" style="rounded=0;whiteSpace=wrap;html=1;" parent="lf7gtlG47ufux9Utgd1f-21" vertex="1">
          <mxGeometry width="50" height="60" as="geometry" />
        </mxCell>
        <mxCell id="lf7gtlG47ufux9Utgd1f-23" value="" style="shape=image;verticalLabelPosition=bottom;labelBackgroundColor=default;verticalAlign=top;aspect=fixed;imageAspect=0;image=https://upload.wikimedia.org/wikipedia/commons/thumb/0/02/Optoisolator_Pinout.svg/1200px-Optoisolator_Pinout.svg.png;direction=north;" parent="lf7gtlG47ufux9Utgd1f-21" vertex="1">
          <mxGeometry x="9.004999999999995" y="3.335000000000008" width="32" height="53.33" as="geometry" />
        </mxCell>
        <mxCell id="lf7gtlG47ufux9Utgd1f-25" value="" style="group" parent="1" vertex="1" connectable="0">
          <mxGeometry x="360" y="160" width="50" height="60" as="geometry" />
        </mxCell>
        <mxCell id="lf7gtlG47ufux9Utgd1f-26" value="" style="rounded=0;whiteSpace=wrap;html=1;" parent="lf7gtlG47ufux9Utgd1f-25" vertex="1">
          <mxGeometry width="50" height="60" as="geometry" />
        </mxCell>
        <mxCell id="lf7gtlG47ufux9Utgd1f-27" value="" style="shape=image;verticalLabelPosition=bottom;labelBackgroundColor=default;verticalAlign=top;aspect=fixed;imageAspect=0;image=https://upload.wikimedia.org/wikipedia/commons/thumb/0/02/Optoisolator_Pinout.svg/1200px-Optoisolator_Pinout.svg.png;direction=north;" parent="lf7gtlG47ufux9Utgd1f-25" vertex="1">
          <mxGeometry x="9.004999999999995" y="3.335000000000008" width="32" height="53.33" as="geometry" />
        </mxCell>
        <mxCell id="lf7gtlG47ufux9Utgd1f-52" value="" style="group;rotation=90;" parent="1" vertex="1" connectable="0">
          <mxGeometry x="764" y="440" width="55" height="60" as="geometry" />
        </mxCell>
        <mxCell id="lf7gtlG47ufux9Utgd1f-53" value="" style="group" parent="lf7gtlG47ufux9Utgd1f-52" vertex="1" connectable="0">
          <mxGeometry x="-5" y="5" width="60" height="50" as="geometry" />
        </mxCell>
        <mxCell id="lf7gtlG47ufux9Utgd1f-54" value="" style="rounded=0;whiteSpace=wrap;html=1;direction=south;" parent="lf7gtlG47ufux9Utgd1f-53" vertex="1">
          <mxGeometry width="60" height="50" as="geometry" />
        </mxCell>
        <mxCell id="lf7gtlG47ufux9Utgd1f-55" value="" style="shape=image;verticalLabelPosition=bottom;labelBackgroundColor=default;verticalAlign=top;aspect=fixed;imageAspect=0;image=https://upload.wikimedia.org/wikipedia/commons/thumb/0/02/Optoisolator_Pinout.svg/1200px-Optoisolator_Pinout.svg.png;direction=east;" parent="lf7gtlG47ufux9Utgd1f-53" vertex="1">
          <mxGeometry x="3.3399999999999963" y="9.000000000000007" width="53.33" height="32" as="geometry" />
        </mxCell>
        <mxCell id="lf7gtlG47ufux9Utgd1f-56" value="" style="group;rotation=90;" parent="1" vertex="1" connectable="0">
          <mxGeometry x="764" y="500" width="55" height="60" as="geometry" />
        </mxCell>
        <mxCell id="lf7gtlG47ufux9Utgd1f-57" value="" style="group" parent="lf7gtlG47ufux9Utgd1f-56" vertex="1" connectable="0">
          <mxGeometry x="-5" y="5" width="60" height="50" as="geometry" />
        </mxCell>
        <mxCell id="lf7gtlG47ufux9Utgd1f-58" value="" style="rounded=0;whiteSpace=wrap;html=1;direction=south;" parent="lf7gtlG47ufux9Utgd1f-57" vertex="1">
          <mxGeometry width="60" height="50" as="geometry" />
        </mxCell>
        <mxCell id="lf7gtlG47ufux9Utgd1f-59" value="" style="shape=image;verticalLabelPosition=bottom;labelBackgroundColor=default;verticalAlign=top;aspect=fixed;imageAspect=0;image=https://upload.wikimedia.org/wikipedia/commons/thumb/0/02/Optoisolator_Pinout.svg/1200px-Optoisolator_Pinout.svg.png;direction=east;" parent="lf7gtlG47ufux9Utgd1f-57" vertex="1">
          <mxGeometry x="3.3399999999999963" y="9.000000000000007" width="53.33" height="32" as="geometry" />
        </mxCell>
        <mxCell id="lf7gtlG47ufux9Utgd1f-60" value="" style="rounded=0;whiteSpace=wrap;html=1;direction=south;align=right;fillColor=#fad7ac;strokeColor=#b46504;" parent="1" vertex="1">
          <mxGeometry x="30" y="245" width="40" height="145" as="geometry" />
        </mxCell>
        <mxCell id="lf7gtlG47ufux9Utgd1f-61" value="" style="rounded=0;whiteSpace=wrap;html=1;direction=south;fillColor=#fad7ac;strokeColor=#b46504;" parent="1" vertex="1">
          <mxGeometry x="110" y="245" width="40" height="145" as="geometry" />
        </mxCell>
        <mxCell id="lf7gtlG47ufux9Utgd1f-62" value="" style="rounded=0;whiteSpace=wrap;html=1;direction=south;fillColor=#fad7ac;strokeColor=#b46504;" parent="1" vertex="1">
          <mxGeometry x="190" y="246" width="40" height="140" as="geometry" />
        </mxCell>
        <mxCell id="lf7gtlG47ufux9Utgd1f-63" value="" style="rounded=0;whiteSpace=wrap;html=1;direction=south;fillColor=#fad7ac;strokeColor=#b46504;" parent="1" vertex="1">
          <mxGeometry x="280" y="248" width="40" height="140" as="geometry" />
        </mxCell>
        <mxCell id="lf7gtlG47ufux9Utgd1f-64" value="" style="rounded=0;whiteSpace=wrap;html=1;direction=south;" parent="1" vertex="1">
          <mxGeometry x="610" y="30" width="45" height="100" as="geometry" />
        </mxCell>
        <mxCell id="lf7gtlG47ufux9Utgd1f-65" value="" style="rounded=0;whiteSpace=wrap;html=1;direction=south;" parent="1" vertex="1">
          <mxGeometry x="668" y="30" width="45" height="100" as="geometry" />
        </mxCell>
        <mxCell id="lf7gtlG47ufux9Utgd1f-66" value="" style="rounded=0;whiteSpace=wrap;html=1;direction=south;" parent="1" vertex="1">
          <mxGeometry x="723" y="30" width="40" height="100" as="geometry" />
        </mxCell>
        <mxCell id="lf7gtlG47ufux9Utgd1f-67" value="&lt;b&gt;&lt;i&gt;&lt;font style=&quot;font-size: 15px;&quot;&gt;Relay Control&lt;/font&gt;&lt;/i&gt;&lt;/b&gt;" style="rounded=0;whiteSpace=wrap;html=1;fillColor=#b1ddf0;strokeColor=#10739e;" parent="1" vertex="1">
          <mxGeometry x="30" y="163" width="300" height="60" as="geometry" />
        </mxCell>
        <mxCell id="lf7gtlG47ufux9Utgd1f-70" value="" style="endArrow=classic;html=1;rounded=0;entryX=0.5;entryY=1;entryDx=0;entryDy=0;exitX=0.043;exitY=-0.001;exitDx=0;exitDy=0;exitPerimeter=0;" parent="1" source="lf7gtlG47ufux9Utgd1f-1" target="lf7gtlG47ufux9Utgd1f-26" edge="1">
          <mxGeometry width="50" height="50" relative="1" as="geometry">
            <mxPoint x="460" y="450" as="sourcePoint" />
            <mxPoint x="510" y="400" as="targetPoint" />
            <Array as="points" />
          </mxGeometry>
        </mxCell>
        <mxCell id="lf7gtlG47ufux9Utgd1f-72" value="" style="endArrow=classic;html=1;rounded=0;entryX=0.5;entryY=1;entryDx=0;entryDy=0;exitX=0.043;exitY=-0.001;exitDx=0;exitDy=0;exitPerimeter=0;" parent="1" edge="1">
          <mxGeometry x="0.9289" y="-45" width="50" height="50" relative="1" as="geometry">
            <mxPoint x="445.24" y="244.64" as="sourcePoint" />
            <mxPoint x="444.76" y="219.99999999999994" as="targetPoint" />
            <Array as="points" />
            <mxPoint as="offset" />
          </mxGeometry>
        </mxCell>
        <mxCell id="lf7gtlG47ufux9Utgd1f-73" value="" style="endArrow=classic;html=1;rounded=0;entryX=0.5;entryY=1;entryDx=0;entryDy=0;exitX=0.043;exitY=-0.001;exitDx=0;exitDy=0;exitPerimeter=0;" parent="1" edge="1">
          <mxGeometry x="0.9289" y="-45" width="50" height="50" relative="1" as="geometry">
            <mxPoint x="505.24" y="244.64" as="sourcePoint" />
            <mxPoint x="504.76" y="219.99999999999994" as="targetPoint" />
            <Array as="points" />
            <mxPoint as="offset" />
          </mxGeometry>
        </mxCell>
        <mxCell id="lf7gtlG47ufux9Utgd1f-74" value="" style="endArrow=classic;html=1;rounded=0;entryX=0.5;entryY=1;entryDx=0;entryDy=0;exitX=0.043;exitY=-0.001;exitDx=0;exitDy=0;exitPerimeter=0;" parent="1" edge="1">
          <mxGeometry x="0.9289" y="-45" width="50" height="50" relative="1" as="geometry">
            <mxPoint x="565.24" y="245" as="sourcePoint" />
            <mxPoint x="564.76" y="220.35999999999996" as="targetPoint" />
            <Array as="points" />
            <mxPoint as="offset" />
          </mxGeometry>
        </mxCell>
        <mxCell id="lf7gtlG47ufux9Utgd1f-75" value="" style="endArrow=classic;html=1;rounded=0;exitX=0.5;exitY=0;exitDx=0;exitDy=0;entryX=0.5;entryY=0;entryDx=0;entryDy=0;" parent="1" source="lf7gtlG47ufux9Utgd1f-26" target="lf7gtlG47ufux9Utgd1f-67" edge="1">
          <mxGeometry width="50" height="50" relative="1" as="geometry">
            <mxPoint x="400" y="130" as="sourcePoint" />
            <mxPoint x="130" y="110" as="targetPoint" />
            <Array as="points">
              <mxPoint x="385" y="110" />
              <mxPoint x="180" y="110" />
            </Array>
          </mxGeometry>
        </mxCell>
        <mxCell id="lf7gtlG47ufux9Utgd1f-76" value="" style="endArrow=classic;html=1;rounded=0;exitX=0.5;exitY=0;exitDx=0;exitDy=0;" parent="1" source="lf7gtlG47ufux9Utgd1f-4" edge="1">
          <mxGeometry width="50" height="50" relative="1" as="geometry">
            <mxPoint x="440" y="150" as="sourcePoint" />
            <mxPoint x="380" y="110" as="targetPoint" />
            <Array as="points">
              <mxPoint x="445" y="110" />
            </Array>
          </mxGeometry>
        </mxCell>
        <mxCell id="lf7gtlG47ufux9Utgd1f-77" value="" style="endArrow=classic;html=1;rounded=0;exitX=0.5;exitY=0;exitDx=0;exitDy=0;" parent="1" edge="1">
          <mxGeometry width="50" height="50" relative="1" as="geometry">
            <mxPoint x="505" y="160" as="sourcePoint" />
            <mxPoint x="440" y="109.99999999999994" as="targetPoint" />
            <Array as="points">
              <mxPoint x="505" y="110" />
            </Array>
          </mxGeometry>
        </mxCell>
        <mxCell id="lf7gtlG47ufux9Utgd1f-78" value="" style="endArrow=classic;html=1;rounded=0;exitX=0.5;exitY=0;exitDx=0;exitDy=0;" parent="1" edge="1">
          <mxGeometry width="50" height="50" relative="1" as="geometry">
            <mxPoint x="565" y="160" as="sourcePoint" />
            <mxPoint x="500" y="109.99999999999994" as="targetPoint" />
            <Array as="points">
              <mxPoint x="565" y="110" />
            </Array>
          </mxGeometry>
        </mxCell>
        <mxCell id="lf7gtlG47ufux9Utgd1f-79" value="&lt;b&gt;&lt;font style=&quot;font-size: 14px;&quot;&gt;Light Control&lt;/font&gt;&lt;/b&gt;" style="text;html=1;strokeColor=none;fillColor=none;align=center;verticalAlign=middle;whiteSpace=wrap;rounded=0;fontSize=12;rotation=270;" parent="1" vertex="1">
          <mxGeometry x="-12.5" y="300" width="125" height="30" as="geometry" />
        </mxCell>
        <mxCell id="lf7gtlG47ufux9Utgd1f-81" value="&lt;b&gt;&lt;font style=&quot;font-size: 14px;&quot;&gt;Wash Pump&lt;/font&gt;&lt;/b&gt;" style="text;html=1;strokeColor=none;fillColor=none;align=center;verticalAlign=middle;whiteSpace=wrap;rounded=0;fontSize=12;rotation=270;" parent="1" vertex="1">
          <mxGeometry x="67.5" y="300" width="125" height="30" as="geometry" />
        </mxCell>
        <mxCell id="lf7gtlG47ufux9Utgd1f-82" value="&lt;b&gt;&lt;font style=&quot;font-size: 14px;&quot;&gt;Water Inlet&lt;/font&gt;&lt;/b&gt;" style="text;html=1;strokeColor=none;fillColor=none;align=center;verticalAlign=middle;whiteSpace=wrap;rounded=0;fontSize=12;rotation=270;" parent="1" vertex="1">
          <mxGeometry x="147.5" y="300" width="125" height="30" as="geometry" />
        </mxCell>
        <mxCell id="lf7gtlG47ufux9Utgd1f-83" value="&lt;b&gt;&lt;font style=&quot;font-size: 14px;&quot;&gt;Heater&lt;/font&gt;&lt;/b&gt;" style="text;html=1;strokeColor=none;fillColor=none;align=center;verticalAlign=middle;whiteSpace=wrap;rounded=0;fontSize=12;rotation=270;" parent="1" vertex="1">
          <mxGeometry x="237.5" y="300" width="125" height="30" as="geometry" />
        </mxCell>
        <mxCell id="lf7gtlG47ufux9Utgd1f-88" value="" style="endArrow=classic;html=1;rounded=0;fontSize=14;" parent="1" edge="1">
          <mxGeometry width="50" height="50" relative="1" as="geometry">
            <mxPoint x="130" y="223" as="sourcePoint" />
            <mxPoint x="130.26315789473682" y="247.99999999999994" as="targetPoint" />
          </mxGeometry>
        </mxCell>
        <mxCell id="lf7gtlG47ufux9Utgd1f-89" value="" style="endArrow=classic;html=1;rounded=0;fontSize=14;" parent="1" edge="1">
          <mxGeometry x="-0.2927" y="-110" width="50" height="50" relative="1" as="geometry">
            <mxPoint x="49.779999999999944" y="223" as="sourcePoint" />
            <mxPoint x="50.04315789473682" y="247.99999999999994" as="targetPoint" />
            <mxPoint as="offset" />
          </mxGeometry>
        </mxCell>
        <mxCell id="lf7gtlG47ufux9Utgd1f-90" value="" style="endArrow=classic;html=1;rounded=0;fontSize=14;" parent="1" edge="1">
          <mxGeometry x="-0.2927" y="-110" width="50" height="50" relative="1" as="geometry">
            <mxPoint x="209.77999999999997" y="223" as="sourcePoint" />
            <mxPoint x="210.04315789473685" y="247.99999999999994" as="targetPoint" />
            <mxPoint as="offset" />
          </mxGeometry>
        </mxCell>
        <mxCell id="lf7gtlG47ufux9Utgd1f-91" value="" style="endArrow=classic;html=1;rounded=0;fontSize=14;" parent="1" edge="1">
          <mxGeometry x="-0.2927" y="-110" width="50" height="50" relative="1" as="geometry">
            <mxPoint x="299.78" y="223" as="sourcePoint" />
            <mxPoint x="300.04315789473685" y="247.99999999999994" as="targetPoint" />
            <mxPoint as="offset" />
          </mxGeometry>
        </mxCell>
        <mxCell id="lf7gtlG47ufux9Utgd1f-92" value="&lt;b&gt;&lt;font style=&quot;font-size: 14px;&quot;&gt;Valve Open Indication&lt;/font&gt;&lt;/b&gt;" style="text;html=1;strokeColor=none;fillColor=none;align=center;verticalAlign=middle;whiteSpace=wrap;rounded=0;fontSize=12;rotation=270;" parent="1" vertex="1">
          <mxGeometry x="577.25" y="56.25" width="107.5" height="30" as="geometry" />
        </mxCell>
        <mxCell id="lf7gtlG47ufux9Utgd1f-93" value="&lt;b&gt;&lt;font style=&quot;font-size: 14px;&quot;&gt;Valve Close Indication&lt;/font&gt;&lt;/b&gt;" style="text;html=1;strokeColor=none;fillColor=none;align=center;verticalAlign=middle;whiteSpace=wrap;rounded=0;fontSize=12;rotation=270;" parent="1" vertex="1">
          <mxGeometry x="638.38" y="63.13" width="97.5" height="26.25" as="geometry" />
        </mxCell>
        <mxCell id="lf7gtlG47ufux9Utgd1f-94" value="&lt;b&gt;&lt;font style=&quot;font-size: 14px;&quot;&gt;ON/OFF&lt;/font&gt;&lt;/b&gt;" style="text;html=1;strokeColor=none;fillColor=none;align=center;verticalAlign=middle;whiteSpace=wrap;rounded=0;fontSize=12;rotation=270;" parent="1" vertex="1">
          <mxGeometry x="701.63" y="60.85" width="83.57" height="29.38" as="geometry" />
        </mxCell>
        <mxCell id="lf7gtlG47ufux9Utgd1f-95" value="" style="endArrow=classic;html=1;rounded=0;fontSize=15;exitX=1.013;exitY=0.667;exitDx=0;exitDy=0;entryX=0.5;entryY=0;entryDx=0;entryDy=0;exitPerimeter=0;" parent="1" source="lf7gtlG47ufux9Utgd1f-64" target="lf7gtlG47ufux9Utgd1f-16" edge="1">
          <mxGeometry width="50" height="50" relative="1" as="geometry">
            <mxPoint x="540" y="240" as="sourcePoint" />
            <mxPoint x="590" y="190" as="targetPoint" />
          </mxGeometry>
        </mxCell>
        <mxCell id="lf7gtlG47ufux9Utgd1f-98" value="" style="endArrow=classic;html=1;rounded=0;fontSize=15;entryX=0.5;entryY=0;entryDx=0;entryDy=0;exitX=1;exitY=0.5;exitDx=0;exitDy=0;" parent="1" target="lf7gtlG47ufux9Utgd1f-109" edge="1">
          <mxGeometry width="50" height="50" relative="1" as="geometry">
            <mxPoint x="684.86" y="130" as="sourcePoint" />
            <mxPoint x="684.8649999999999" y="163.33500000000004" as="targetPoint" />
          </mxGeometry>
        </mxCell>
        <mxCell id="lf7gtlG47ufux9Utgd1f-99" value="" style="endArrow=classic;html=1;rounded=0;fontSize=15;" parent="1" edge="1">
          <mxGeometry width="50" height="50" relative="1" as="geometry">
            <mxPoint x="740" y="160" as="sourcePoint" />
            <mxPoint x="560" y="110" as="targetPoint" />
            <Array as="points">
              <mxPoint x="740" y="150" />
              <mxPoint x="580" y="150" />
              <mxPoint x="580" y="110" />
            </Array>
          </mxGeometry>
        </mxCell>
        <mxCell id="lf7gtlG47ufux9Utgd1f-100" value="" style="endArrow=classic;html=1;rounded=0;fontSize=15;entryX=0.5;entryY=1;entryDx=0;entryDy=0;exitX=0.972;exitY=0.001;exitDx=0;exitDy=0;exitPerimeter=0;" parent="1" source="lf7gtlG47ufux9Utgd1f-1" target="lf7gtlG47ufux9Utgd1f-22" edge="1">
          <mxGeometry width="50" height="50" relative="1" as="geometry">
            <mxPoint x="720" y="240" as="sourcePoint" />
            <mxPoint x="680" y="170" as="targetPoint" />
            <Array as="points">
              <mxPoint x="720" y="240" />
              <mxPoint x="745" y="240" />
            </Array>
          </mxGeometry>
        </mxCell>
        <mxCell id="lf7gtlG47ufux9Utgd1f-102" value="" style="endArrow=classic;html=1;rounded=0;fontSize=15;exitX=0.5;exitY=1;exitDx=0;exitDy=0;entryX=0.709;entryY=0.001;entryDx=0;entryDy=0;entryPerimeter=0;" parent="1" source="lf7gtlG47ufux9Utgd1f-16" target="lf7gtlG47ufux9Utgd1f-1" edge="1">
          <mxGeometry width="50" height="50" relative="1" as="geometry">
            <mxPoint x="624.9300000000001" y="245.35999999999996" as="sourcePoint" />
            <mxPoint x="650" y="240" as="targetPoint" />
          </mxGeometry>
        </mxCell>
        <mxCell id="lf7gtlG47ufux9Utgd1f-104" value="" style="endArrow=classic;html=1;rounded=0;fontSize=15;exitX=0.5;exitY=1;exitDx=0;exitDy=0;entryX=0.709;entryY=0.001;entryDx=0;entryDy=0;entryPerimeter=0;" parent="1" edge="1">
          <mxGeometry width="50" height="50" relative="1" as="geometry">
            <mxPoint x="684.88" y="219.64" as="sourcePoint" />
            <mxPoint x="685.12" y="245" as="targetPoint" />
          </mxGeometry>
        </mxCell>
        <mxCell id="lf7gtlG47ufux9Utgd1f-108" value="" style="group" parent="1" vertex="1" connectable="0">
          <mxGeometry x="660" y="160" width="50" height="60" as="geometry" />
        </mxCell>
        <mxCell id="lf7gtlG47ufux9Utgd1f-109" value="" style="rounded=0;whiteSpace=wrap;html=1;" parent="lf7gtlG47ufux9Utgd1f-108" vertex="1">
          <mxGeometry width="50" height="60" as="geometry" />
        </mxCell>
        <mxCell id="lf7gtlG47ufux9Utgd1f-110" value="" style="shape=image;verticalLabelPosition=bottom;labelBackgroundColor=default;verticalAlign=top;aspect=fixed;imageAspect=0;image=https://upload.wikimedia.org/wikipedia/commons/thumb/0/02/Optoisolator_Pinout.svg/1200px-Optoisolator_Pinout.svg.png;direction=south;" parent="lf7gtlG47ufux9Utgd1f-108" vertex="1">
          <mxGeometry x="9.004999999999995" y="3.335000000000008" width="32" height="53.33" as="geometry" />
        </mxCell>
        <mxCell id="lf7gtlG47ufux9Utgd1f-112" value="" style="rounded=0;whiteSpace=wrap;html=1;direction=south;" parent="1" vertex="1">
          <mxGeometry x="759" y="260" width="60" height="50" as="geometry" />
        </mxCell>
        <mxCell id="lf7gtlG47ufux9Utgd1f-113" value="" style="shape=image;verticalLabelPosition=bottom;labelBackgroundColor=default;verticalAlign=top;aspect=fixed;imageAspect=0;image=https://upload.wikimedia.org/wikipedia/commons/thumb/0/02/Optoisolator_Pinout.svg/1200px-Optoisolator_Pinout.svg.png;direction=west;" parent="1" vertex="1">
          <mxGeometry x="762.34" y="269" width="53.33" height="32" as="geometry" />
        </mxCell>
        <mxCell id="lf7gtlG47ufux9Utgd1f-114" value="" style="endArrow=classic;html=1;rounded=0;fontSize=15;exitX=0.5;exitY=1;exitDx=0;exitDy=0;" parent="1" source="lf7gtlG47ufux9Utgd1f-112" edge="1">
          <mxGeometry width="50" height="50" relative="1" as="geometry">
            <mxPoint x="830" y="340" as="sourcePoint" />
            <mxPoint x="730" y="285" as="targetPoint" />
          </mxGeometry>
        </mxCell>
        <mxCell id="lf7gtlG47ufux9Utgd1f-117" value="" style="rounded=0;whiteSpace=wrap;html=1;labelBackgroundColor=#6666FF;fontSize=12;fillColor=#e1d5e7;strokeColor=#9673a6;" parent="1" vertex="1">
          <mxGeometry x="850" y="270" width="120" height="30" as="geometry" />
        </mxCell>
        <mxCell id="lf7gtlG47ufux9Utgd1f-120" value="&lt;b&gt;Proximity Sensor&lt;/b&gt;" style="text;html=1;strokeColor=none;fillColor=none;align=center;verticalAlign=middle;whiteSpace=wrap;rounded=0;labelBackgroundColor=#FFFFFFF;fontSize=12;fontColor=#080808;" parent="1" vertex="1">
          <mxGeometry x="871" y="271" width="80" height="30" as="geometry" />
        </mxCell>
        <mxCell id="lf7gtlG47ufux9Utgd1f-121" value="" style="endArrow=classic;html=1;rounded=0;fontSize=12;fontColor=#080808;exitX=0;exitY=0.5;exitDx=0;exitDy=0;entryX=0.5;entryY=0;entryDx=0;entryDy=0;" parent="1" source="lf7gtlG47ufux9Utgd1f-117" target="lf7gtlG47ufux9Utgd1f-112" edge="1">
          <mxGeometry width="50" height="50" relative="1" as="geometry">
            <mxPoint x="830" y="320" as="sourcePoint" />
            <mxPoint x="820" y="280" as="targetPoint" />
          </mxGeometry>
        </mxCell>
        <mxCell id="lf7gtlG47ufux9Utgd1f-123" value="&lt;b&gt;Running Feed Back&lt;/b&gt;" style="text;html=1;strokeColor=#36393d;fillColor=#f9f7ed;align=center;verticalAlign=middle;whiteSpace=wrap;rounded=0;labelBackgroundColor=#FFFFFFF;fontSize=12;" parent="1" vertex="1">
          <mxGeometry x="850" y="331.5" width="120" height="30" as="geometry" />
        </mxCell>
        <mxCell id="lf7gtlG47ufux9Utgd1f-124" value="&lt;b style=&quot;border-color: var(--border-color);&quot;&gt;Fault Detection&lt;/b&gt;" style="text;html=1;strokeColor=#36393d;fillColor=#f9f7ed;align=center;verticalAlign=middle;whiteSpace=wrap;rounded=0;labelBackgroundColor=#FFFFFFF;fontSize=12;" parent="1" vertex="1">
          <mxGeometry x="850" y="395" width="120" height="30" as="geometry" />
        </mxCell>
        <mxCell id="lf7gtlG47ufux9Utgd1f-125" value="&lt;b&gt;Reverse&lt;/b&gt;" style="text;html=1;strokeColor=#36393d;fillColor=#f9f7ed;align=center;verticalAlign=middle;whiteSpace=wrap;rounded=0;labelBackgroundColor=#FFFFFFF;fontSize=12;" parent="1" vertex="1">
          <mxGeometry x="851" y="455" width="120" height="30" as="geometry" />
        </mxCell>
        <mxCell id="lf7gtlG47ufux9Utgd1f-127" value="&lt;b&gt;Forward / ON&lt;/b&gt;" style="text;html=1;strokeColor=#36393d;fillColor=#f9f7ed;align=center;verticalAlign=middle;whiteSpace=wrap;rounded=0;labelBackgroundColor=#FFFFFFF;fontSize=12;" parent="1" vertex="1">
          <mxGeometry x="851" y="515" width="120" height="30" as="geometry" />
        </mxCell>
        <mxCell id="lf7gtlG47ufux9Utgd1f-128" value="" style="rounded=0;whiteSpace=wrap;html=1;direction=south;" parent="1" vertex="1">
          <mxGeometry x="759" y="321.5" width="60" height="50" as="geometry" />
        </mxCell>
        <mxCell id="lf7gtlG47ufux9Utgd1f-129" value="" style="shape=image;verticalLabelPosition=bottom;labelBackgroundColor=default;verticalAlign=top;aspect=fixed;imageAspect=0;image=https://upload.wikimedia.org/wikipedia/commons/thumb/0/02/Optoisolator_Pinout.svg/1200px-Optoisolator_Pinout.svg.png;direction=west;" parent="1" vertex="1">
          <mxGeometry x="762.34" y="330.5" width="53.33" height="32" as="geometry" />
        </mxCell>
        <mxCell id="lf7gtlG47ufux9Utgd1f-130" value="" style="endArrow=classic;html=1;rounded=0;fontSize=12;fontColor=#080808;exitX=0;exitY=0.5;exitDx=0;exitDy=0;" parent="1" source="lf7gtlG47ufux9Utgd1f-123" target="lf7gtlG47ufux9Utgd1f-128" edge="1">
          <mxGeometry width="50" height="50" relative="1" as="geometry">
            <mxPoint x="840" y="380" as="sourcePoint" />
            <mxPoint x="820" y="340" as="targetPoint" />
          </mxGeometry>
        </mxCell>
        <mxCell id="lf7gtlG47ufux9Utgd1f-141" value="" style="rounded=0;whiteSpace=wrap;html=1;direction=south;" parent="1" vertex="1">
          <mxGeometry x="759" y="385" width="60" height="50" as="geometry" />
        </mxCell>
        <mxCell id="lf7gtlG47ufux9Utgd1f-139" value="" style="shape=image;verticalLabelPosition=bottom;labelBackgroundColor=default;verticalAlign=top;aspect=fixed;imageAspect=0;image=https://upload.wikimedia.org/wikipedia/commons/thumb/0/02/Optoisolator_Pinout.svg/1200px-Optoisolator_Pinout.svg.png;direction=west;" parent="1" vertex="1">
          <mxGeometry x="762.33" y="394" width="53.33" height="32" as="geometry" />
        </mxCell>
        <mxCell id="lf7gtlG47ufux9Utgd1f-143" value="" style="endArrow=classic;html=1;rounded=0;fontSize=12;fontColor=#080808;exitX=0;exitY=0.5;exitDx=0;exitDy=0;" parent="1" source="lf7gtlG47ufux9Utgd1f-124" edge="1">
          <mxGeometry width="50" height="50" relative="1" as="geometry">
            <mxPoint x="840" y="470" as="sourcePoint" />
            <mxPoint x="820" y="410" as="targetPoint" />
          </mxGeometry>
        </mxCell>
        <mxCell id="lf7gtlG47ufux9Utgd1f-144" value="" style="endArrow=classic;html=1;rounded=0;fontSize=12;fontColor=#080808;exitX=0.5;exitY=0;exitDx=0;exitDy=0;entryX=0;entryY=0.5;entryDx=0;entryDy=0;" parent="1" source="lf7gtlG47ufux9Utgd1f-54" target="lf7gtlG47ufux9Utgd1f-125" edge="1">
          <mxGeometry width="50" height="50" relative="1" as="geometry">
            <mxPoint x="840" y="470" as="sourcePoint" />
            <mxPoint x="890" y="420" as="targetPoint" />
          </mxGeometry>
        </mxCell>
        <mxCell id="lf7gtlG47ufux9Utgd1f-145" value="" style="endArrow=classic;html=1;rounded=0;fontSize=12;fontColor=#080808;exitX=0.5;exitY=0;exitDx=0;exitDy=0;entryX=0;entryY=0.5;entryDx=0;entryDy=0;" parent="1" edge="1">
          <mxGeometry width="50" height="50" relative="1" as="geometry">
            <mxPoint x="818" y="529.77" as="sourcePoint" />
            <mxPoint x="850" y="529.77" as="targetPoint" />
          </mxGeometry>
        </mxCell>
        <mxCell id="lf7gtlG47ufux9Utgd1f-146" value="" style="endArrow=classic;html=1;rounded=0;fontSize=12;fontColor=#080808;" parent="1" edge="1">
          <mxGeometry width="50" height="50" relative="1" as="geometry">
            <mxPoint x="730" y="470" as="sourcePoint" />
            <mxPoint x="759" y="470" as="targetPoint" />
          </mxGeometry>
        </mxCell>
        <mxCell id="lf7gtlG47ufux9Utgd1f-147" value="" style="endArrow=classic;html=1;rounded=0;fontSize=12;fontColor=#080808;" parent="1" edge="1">
          <mxGeometry width="50" height="50" relative="1" as="geometry">
            <mxPoint x="730" y="530" as="sourcePoint" />
            <mxPoint x="759" y="529.77" as="targetPoint" />
          </mxGeometry>
        </mxCell>
        <mxCell id="lf7gtlG47ufux9Utgd1f-149" value="" style="endArrow=classic;html=1;rounded=0;fontSize=12;fontColor=#080808;exitX=0;exitY=0.5;exitDx=0;exitDy=0;" parent="1" edge="1">
          <mxGeometry width="50" height="50" relative="1" as="geometry">
            <mxPoint x="759" y="340" as="sourcePoint" />
            <mxPoint x="730" y="340" as="targetPoint" />
          </mxGeometry>
        </mxCell>
        <mxCell id="lf7gtlG47ufux9Utgd1f-150" value="" style="endArrow=classic;html=1;rounded=0;fontSize=12;fontColor=#080808;exitX=0;exitY=0.5;exitDx=0;exitDy=0;" parent="1" edge="1">
          <mxGeometry width="50" height="50" relative="1" as="geometry">
            <mxPoint x="759" y="409.93" as="sourcePoint" />
            <mxPoint x="730" y="409.93" as="targetPoint" />
          </mxGeometry>
        </mxCell>
        <mxCell id="lf7gtlG47ufux9Utgd1f-155" value="&lt;b&gt;&lt;font style=&quot;font-size: 13px; background-color: rgb(247, 243, 243);&quot;&gt;DAC&lt;/font&gt;&lt;/b&gt;" style="text;html=1;strokeColor=#666666;fillColor=#f5f5f5;align=center;verticalAlign=middle;whiteSpace=wrap;rounded=0;labelBackgroundColor=#FFFFFFF;fontSize=12;fontColor=#333333;" parent="1" vertex="1">
          <mxGeometry x="750" y="725" width="60" height="30" as="geometry" />
        </mxCell>
        <mxCell id="lf7gtlG47ufux9Utgd1f-157" value="" style="endArrow=classic;html=1;rounded=0;fontSize=13;fontColor=#080808;exitX=0.999;exitY=0.959;exitDx=0;exitDy=0;exitPerimeter=0;entryX=0.5;entryY=0;entryDx=0;entryDy=0;" parent="1" source="lf7gtlG47ufux9Utgd1f-1" target="lf7gtlG47ufux9Utgd1f-155" edge="1">
          <mxGeometry width="50" height="50" relative="1" as="geometry">
            <mxPoint x="720" y="580" as="sourcePoint" />
            <mxPoint x="770" y="720" as="targetPoint" />
            <Array as="points">
              <mxPoint x="780" y="590" />
            </Array>
          </mxGeometry>
        </mxCell>
        <mxCell id="lf7gtlG47ufux9Utgd1f-159" value="" style="endArrow=classic;html=1;rounded=0;fontSize=13;fontColor=#080808;exitX=0.454;exitY=0.003;exitDx=0;exitDy=0;exitPerimeter=0;entryX=0.448;entryY=1.003;entryDx=0;entryDy=0;entryPerimeter=0;" parent="1" source="lf7gtlG47ufux9Utgd1f-186" target="lf7gtlG47ufux9Utgd1f-154" edge="1">
          <mxGeometry width="50" height="50" relative="1" as="geometry">
            <mxPoint x="800" y="590" as="sourcePoint" />
            <mxPoint x="904" y="680" as="targetPoint" />
            <Array as="points" />
          </mxGeometry>
        </mxCell>
        <mxCell id="lf7gtlG47ufux9Utgd1f-161" value="&lt;b&gt;&lt;font style=&quot;font-size: 16px;&quot;&gt;VFD&lt;/font&gt;&lt;/b&gt;" style="text;html=1;strokeColor=none;fillColor=none;align=center;verticalAlign=middle;whiteSpace=wrap;rounded=0;labelBackgroundColor=none;fontSize=13;fontColor=#080808;" parent="1" vertex="1">
          <mxGeometry x="882.5" y="590" width="60" height="30" as="geometry" />
        </mxCell>
        <mxCell id="lf7gtlG47ufux9Utgd1f-162" value="" style="rounded=0;whiteSpace=wrap;html=1;labelBackgroundColor=none;fontSize=16;fillColor=#cdeb8b;strokeColor=#36393d;" parent="1" vertex="1">
          <mxGeometry x="230" y="440" width="30" height="70" as="geometry" />
        </mxCell>
        <mxCell id="lf7gtlG47ufux9Utgd1f-163" value="&lt;b&gt;&lt;font style=&quot;font-size: 24px;&quot;&gt;SPI&lt;/font&gt;&lt;/b&gt;" style="text;html=1;strokeColor=none;fillColor=none;align=center;verticalAlign=middle;whiteSpace=wrap;rounded=0;labelBackgroundColor=none;fontSize=16;fontColor=#080808;rotation=270;" parent="1" vertex="1">
          <mxGeometry x="184.07000000000002" y="463.78999999999996" width="121.86" height="22.42" as="geometry" />
        </mxCell>
        <mxCell id="lf7gtlG47ufux9Utgd1f-164" value="" style="endArrow=classic;html=1;rounded=0;fontSize=24;fontColor=#080808;" parent="1" edge="1">
          <mxGeometry width="50" height="50" relative="1" as="geometry">
            <mxPoint x="370" y="451" as="sourcePoint" />
            <mxPoint x="260" y="450" as="targetPoint" />
          </mxGeometry>
        </mxCell>
        <mxCell id="lf7gtlG47ufux9Utgd1f-169" value="&lt;font style=&quot;font-size: 14px;&quot;&gt;&lt;b&gt;SPI_SCK&lt;/b&gt;&lt;/font&gt;" style="text;html=1;strokeColor=none;fillColor=none;align=center;verticalAlign=middle;whiteSpace=wrap;rounded=0;labelBackgroundColor=none;fontSize=24;fontColor=#080808;" parent="1" vertex="1">
          <mxGeometry x="273.5" y="426" width="90" height="20" as="geometry" />
        </mxCell>
        <mxCell id="lf7gtlG47ufux9Utgd1f-170" value="&lt;font style=&quot;font-size: 14px;&quot;&gt;&lt;b&gt;SPI_MISO&lt;/b&gt;&lt;/font&gt;" style="text;html=1;strokeColor=none;fillColor=none;align=center;verticalAlign=middle;whiteSpace=wrap;rounded=0;labelBackgroundColor=none;fontSize=24;fontColor=#080808;" parent="1" vertex="1">
          <mxGeometry x="274.5" y="452" width="90" height="20" as="geometry" />
        </mxCell>
        <mxCell id="lf7gtlG47ufux9Utgd1f-171" value="&lt;font style=&quot;font-size: 14px;&quot;&gt;&lt;b&gt;SPI_MOSI&lt;/b&gt;&lt;/font&gt;" style="text;html=1;strokeColor=none;fillColor=none;align=center;verticalAlign=middle;whiteSpace=wrap;rounded=0;labelBackgroundColor=none;fontSize=24;fontColor=#080808;" parent="1" vertex="1">
          <mxGeometry x="274" y="477.32" width="90" height="20" as="geometry" />
        </mxCell>
        <mxCell id="7u2ONryfr6v7C_WAYZUB-5" value="" style="edgeStyle=orthogonalEdgeStyle;rounded=0;orthogonalLoop=1;jettySize=auto;html=1;entryX=0;entryY=0.903;entryDx=0;entryDy=0;entryPerimeter=0;" parent="1" source="lf7gtlG47ufux9Utgd1f-174" target="lf7gtlG47ufux9Utgd1f-1" edge="1">
          <mxGeometry relative="1" as="geometry">
            <mxPoint x="323" y="550" as="targetPoint" />
            <Array as="points">
              <mxPoint x="272" y="570" />
            </Array>
          </mxGeometry>
        </mxCell>
        <mxCell id="lf7gtlG47ufux9Utgd1f-174" value="&lt;b&gt;&lt;font style=&quot;font-size: 17px;&quot;&gt;Flow Sensor&lt;/font&gt;&lt;/b&gt;" style="rounded=0;whiteSpace=wrap;html=1;labelBackgroundColor=none;fontSize=14;fillColor=#dae8fc;strokeColor=#6c8ebf;" parent="1" vertex="1">
          <mxGeometry x="212.07" y="650" width="120" height="60" as="geometry" />
        </mxCell>
        <mxCell id="lf7gtlG47ufux9Utgd1f-179" value="&lt;b&gt;&lt;font style=&quot;font-size: 21px;&quot;&gt;Drain Valve&lt;/font&gt;&lt;/b&gt;" style="text;html=1;strokeColor=none;fillColor=none;align=center;verticalAlign=middle;whiteSpace=wrap;rounded=0;labelBackgroundColor=none;fontSize=17;fontColor=#080808;" parent="1" vertex="1">
          <mxGeometry x="770" y="70" width="100" height="28.76" as="geometry" />
        </mxCell>
        <mxCell id="lf7gtlG47ufux9Utgd1f-181" value="&lt;b&gt;&lt;font style=&quot;font-size: 11px;&quot;&gt;HC05&lt;br&gt;BlueTooth module&lt;/font&gt;&lt;br&gt;&lt;/b&gt;" style="rounded=0;whiteSpace=wrap;html=1;labelBackgroundColor=none;fontSize=21;fillColor=#ffff88;strokeColor=#36393d;" parent="1" vertex="1">
          <mxGeometry x="370" y="680" width="120" height="60" as="geometry" />
        </mxCell>
        <mxCell id="lf7gtlG47ufux9Utgd1f-182" value="" style="endArrow=classic;html=1;rounded=0;fontSize=21;fontColor=#080808;exitX=0.082;exitY=0.998;exitDx=0;exitDy=0;exitPerimeter=0;entryX=0.25;entryY=0;entryDx=0;entryDy=0;" parent="1" source="lf7gtlG47ufux9Utgd1f-1" target="lf7gtlG47ufux9Utgd1f-181" edge="1">
          <mxGeometry width="50" height="50" relative="1" as="geometry">
            <mxPoint x="400" y="610" as="sourcePoint" />
            <mxPoint x="400" y="680" as="targetPoint" />
          </mxGeometry>
        </mxCell>
        <mxCell id="lf7gtlG47ufux9Utgd1f-183" value="" style="endArrow=classic;html=1;rounded=0;fontSize=21;fontColor=#080808;entryX=0.169;entryY=1.001;entryDx=0;entryDy=0;entryPerimeter=0;exitX=0.507;exitY=0;exitDx=0;exitDy=0;exitPerimeter=0;" parent="1" source="lf7gtlG47ufux9Utgd1f-181" target="lf7gtlG47ufux9Utgd1f-1" edge="1">
          <mxGeometry width="50" height="50" relative="1" as="geometry">
            <mxPoint x="430" y="680" as="sourcePoint" />
            <mxPoint x="430" y="610" as="targetPoint" />
          </mxGeometry>
        </mxCell>
        <mxCell id="lf7gtlG47ufux9Utgd1f-184" value="&lt;font style=&quot;font-size: 14px;&quot;&gt;&lt;b&gt;Tx&lt;/b&gt;&lt;/font&gt;" style="text;html=1;strokeColor=none;fillColor=none;align=center;verticalAlign=middle;whiteSpace=wrap;rounded=0;labelBackgroundColor=none;fontSize=21;fontColor=#080808;rotation=270;" parent="1" vertex="1">
          <mxGeometry x="361.5" y="630" width="47" height="20" as="geometry" />
        </mxCell>
        <mxCell id="lf7gtlG47ufux9Utgd1f-185" value="&lt;font style=&quot;font-size: 14px;&quot;&gt;&lt;b&gt;Rx&lt;/b&gt;&lt;/font&gt;" style="text;html=1;strokeColor=none;fillColor=none;align=center;verticalAlign=middle;whiteSpace=wrap;rounded=0;labelBackgroundColor=none;fontSize=21;fontColor=#080808;rotation=270;" parent="1" vertex="1">
          <mxGeometry x="391" y="632" width="47" height="20" as="geometry" />
        </mxCell>
        <mxCell id="lf7gtlG47ufux9Utgd1f-186" value="&lt;b&gt;OpAmp Amplifier&lt;/b&gt;" style="rounded=0;whiteSpace=wrap;html=1;labelBackgroundColor=none;fontSize=14;fillColor=#cce5ff;strokeColor=#36393d;" parent="1" vertex="1">
          <mxGeometry x="850" y="710" width="120" height="60" as="geometry" />
        </mxCell>
        <mxCell id="lf7gtlG47ufux9Utgd1f-187" value="" style="endArrow=classic;html=1;rounded=0;fontSize=14;fontColor=#080808;exitX=1;exitY=0.5;exitDx=0;exitDy=0;entryX=0;entryY=0.5;entryDx=0;entryDy=0;" parent="1" source="lf7gtlG47ufux9Utgd1f-155" target="lf7gtlG47ufux9Utgd1f-186" edge="1">
          <mxGeometry width="50" height="50" relative="1" as="geometry">
            <mxPoint x="840" y="660" as="sourcePoint" />
            <mxPoint x="890" y="610" as="targetPoint" />
          </mxGeometry>
        </mxCell>
        <mxCell id="lf7gtlG47ufux9Utgd1f-189" value="&lt;b&gt;&lt;font style=&quot;font-size: 16px;&quot;&gt;MAX6675&lt;/font&gt;&lt;/b&gt;" style="rounded=0;whiteSpace=wrap;html=1;labelBackgroundColor=none;fontSize=14;fontColor=#080808;" parent="1" vertex="1">
          <mxGeometry x="80" y="540" width="120" height="30.55" as="geometry" />
        </mxCell>
        <mxCell id="7oMthdcRvUUz_NhnxnWr-1" value="" style="endArrow=classic;html=1;rounded=0;fontSize=24;fontColor=#080808;" parent="1" edge="1">
          <mxGeometry width="50" height="50" relative="1" as="geometry">
            <mxPoint x="370" y="478.32" as="sourcePoint" />
            <mxPoint x="260" y="477.32" as="targetPoint" />
          </mxGeometry>
        </mxCell>
        <mxCell id="7oMthdcRvUUz_NhnxnWr-2" value="" style="endArrow=classic;html=1;rounded=0;fontSize=24;fontColor=#080808;" parent="1" edge="1">
          <mxGeometry width="50" height="50" relative="1" as="geometry">
            <mxPoint x="370" y="503.74" as="sourcePoint" />
            <mxPoint x="260" y="502.74" as="targetPoint" />
          </mxGeometry>
        </mxCell>
        <mxCell id="7oMthdcRvUUz_NhnxnWr-6" value="&lt;b&gt;&lt;font style=&quot;font-size: 13px;&quot;&gt;POWER MEASUREMENT ADC&lt;/font&gt;&lt;/b&gt;" style="text;html=1;strokeColor=#BD7000;fillColor=#f0a30a;align=center;verticalAlign=middle;whiteSpace=wrap;rounded=0;fontColor=#000000;" parent="1" vertex="1">
          <mxGeometry x="10" y="395" width="120" height="95" as="geometry" />
        </mxCell>
        <mxCell id="7oMthdcRvUUz_NhnxnWr-9" value="" style="group" parent="1" vertex="1" connectable="0">
          <mxGeometry x="157" y="395" width="50" height="120" as="geometry" />
        </mxCell>
        <mxCell id="lf7gtlG47ufux9Utgd1f-188" value="" style="rounded=0;whiteSpace=wrap;html=1;labelBackgroundColor=none;fontSize=14;fontColor=#080808;" parent="7oMthdcRvUUz_NhnxnWr-9" vertex="1">
          <mxGeometry width="50" height="120" as="geometry" />
        </mxCell>
        <mxCell id="7oMthdcRvUUz_NhnxnWr-8" value="&lt;b&gt;&lt;font style=&quot;font-size: 16px;&quot;&gt;MCP3008&lt;/font&gt;&lt;/b&gt;" style="text;html=1;strokeColor=none;fillColor=none;align=center;verticalAlign=middle;whiteSpace=wrap;rounded=0;rotation=270;" parent="7oMthdcRvUUz_NhnxnWr-9" vertex="1">
          <mxGeometry x="-19.24000000000001" y="50.579999999999984" width="88.16" height="21.32" as="geometry" />
        </mxCell>
        <mxCell id="7oMthdcRvUUz_NhnxnWr-11" value="" style="endArrow=classic;html=1;rounded=0;fontSize=13;entryX=-0.012;entryY=0.08;entryDx=0;entryDy=0;entryPerimeter=0;" parent="1" target="lf7gtlG47ufux9Utgd1f-188" edge="1">
          <mxGeometry width="50" height="50" relative="1" as="geometry">
            <mxPoint x="130" y="404" as="sourcePoint" />
            <mxPoint x="230" y="400" as="targetPoint" />
          </mxGeometry>
        </mxCell>
        <mxCell id="7oMthdcRvUUz_NhnxnWr-12" value="" style="endArrow=classic;html=1;rounded=0;fontSize=13;entryX=-0.012;entryY=0.08;entryDx=0;entryDy=0;entryPerimeter=0;" parent="1" edge="1">
          <mxGeometry width="50" height="50" relative="1" as="geometry">
            <mxPoint x="130.6" y="419" as="sourcePoint" />
            <mxPoint x="156.99999999999997" y="419.6" as="targetPoint" />
          </mxGeometry>
        </mxCell>
        <mxCell id="7oMthdcRvUUz_NhnxnWr-14" value="" style="endArrow=classic;html=1;rounded=0;fontSize=13;entryX=-0.012;entryY=0.08;entryDx=0;entryDy=0;entryPerimeter=0;" parent="1" edge="1">
          <mxGeometry width="50" height="50" relative="1" as="geometry">
            <mxPoint x="130.6" y="450" as="sourcePoint" />
            <mxPoint x="156.99999999999997" y="450.6" as="targetPoint" />
          </mxGeometry>
        </mxCell>
        <mxCell id="7oMthdcRvUUz_NhnxnWr-15" value="" style="endArrow=classic;html=1;rounded=0;fontSize=13;entryX=-0.012;entryY=0.08;entryDx=0;entryDy=0;entryPerimeter=0;" parent="1" edge="1">
          <mxGeometry width="50" height="50" relative="1" as="geometry">
            <mxPoint x="130.6" y="463.79" as="sourcePoint" />
            <mxPoint x="156.99999999999997" y="464.39000000000004" as="targetPoint" />
          </mxGeometry>
        </mxCell>
        <mxCell id="7oMthdcRvUUz_NhnxnWr-16" value="" style="endArrow=classic;html=1;rounded=0;fontSize=13;entryX=-0.012;entryY=0.08;entryDx=0;entryDy=0;entryPerimeter=0;" parent="1" edge="1">
          <mxGeometry width="50" height="50" relative="1" as="geometry">
            <mxPoint x="130.6" y="478.32" as="sourcePoint" />
            <mxPoint x="156.99999999999997" y="478.92" as="targetPoint" />
          </mxGeometry>
        </mxCell>
        <mxCell id="7oMthdcRvUUz_NhnxnWr-18" value="" style="endArrow=classic;html=1;rounded=0;fontSize=13;entryX=-0.012;entryY=0.08;entryDx=0;entryDy=0;entryPerimeter=0;" parent="1" edge="1">
          <mxGeometry width="50" height="50" relative="1" as="geometry">
            <mxPoint x="130.60000000000002" y="435" as="sourcePoint" />
            <mxPoint x="157" y="435.6" as="targetPoint" />
          </mxGeometry>
        </mxCell>
        <mxCell id="7oMthdcRvUUz_NhnxnWr-19" value="" style="endArrow=classic;startArrow=classic;html=1;rounded=0;fontSize=13;entryX=0;entryY=0.5;entryDx=0;entryDy=0;exitX=0.988;exitY=0.659;exitDx=0;exitDy=0;exitPerimeter=0;" parent="1" source="lf7gtlG47ufux9Utgd1f-188" target="lf7gtlG47ufux9Utgd1f-162" edge="1">
          <mxGeometry width="50" height="50" relative="1" as="geometry">
            <mxPoint x="110" y="450" as="sourcePoint" />
            <mxPoint x="160" y="400" as="targetPoint" />
          </mxGeometry>
        </mxCell>
        <mxCell id="7oMthdcRvUUz_NhnxnWr-20" value="" style="endArrow=classic;html=1;rounded=0;fontSize=13;exitX=1;exitY=0.5;exitDx=0;exitDy=0;entryX=0;entryY=0.75;entryDx=0;entryDy=0;" parent="1" source="lf7gtlG47ufux9Utgd1f-189" target="lf7gtlG47ufux9Utgd1f-162" edge="1">
          <mxGeometry width="50" height="50" relative="1" as="geometry">
            <mxPoint x="110" y="450" as="sourcePoint" />
            <mxPoint x="220" y="490" as="targetPoint" />
            <Array as="points">
              <mxPoint x="210" y="555" />
              <mxPoint x="210" y="493" />
            </Array>
          </mxGeometry>
        </mxCell>
        <mxCell id="7oMthdcRvUUz_NhnxnWr-22" value="" style="endArrow=classic;html=1;rounded=0;fontSize=13;exitX=1;exitY=0.75;exitDx=0;exitDy=0;entryX=1;entryY=0.75;entryDx=0;entryDy=0;" parent="1" target="lf7gtlG47ufux9Utgd1f-189" edge="1">
          <mxGeometry width="50" height="50" relative="1" as="geometry">
            <mxPoint x="370" y="530" as="sourcePoint" />
            <mxPoint x="70" y="440" as="targetPoint" />
            <Array as="points">
              <mxPoint x="230" y="530" />
              <mxPoint x="230" y="563" />
            </Array>
          </mxGeometry>
        </mxCell>
        <mxCell id="7oMthdcRvUUz_NhnxnWr-24" value="&lt;font style=&quot;font-size: 14px;&quot;&gt;&lt;b&gt;SS Pin - 2&lt;/b&gt;&lt;/font&gt;" style="text;html=1;strokeColor=none;fillColor=none;align=center;verticalAlign=middle;whiteSpace=wrap;rounded=0;labelBackgroundColor=none;fontSize=24;fontColor=#080808;" parent="1" vertex="1">
          <mxGeometry x="277.5" y="507" width="90" height="20" as="geometry" />
        </mxCell>
        <mxCell id="7oMthdcRvUUz_NhnxnWr-26" value="&lt;font style=&quot;font-size: 14px;&quot;&gt;&lt;b&gt;SS Pin - 1&lt;/b&gt;&lt;/font&gt;" style="text;html=1;strokeColor=none;fillColor=none;align=center;verticalAlign=middle;whiteSpace=wrap;rounded=0;labelBackgroundColor=none;fontSize=24;fontColor=#080808;" parent="1" vertex="1">
          <mxGeometry x="279" y="394" width="90" height="20" as="geometry" />
        </mxCell>
        <mxCell id="7oMthdcRvUUz_NhnxnWr-27" value="" style="endArrow=classic;html=1;rounded=0;fontSize=13;exitX=-0.001;exitY=0.481;exitDx=0;exitDy=0;exitPerimeter=0;entryX=1.051;entryY=0.182;entryDx=0;entryDy=0;entryPerimeter=0;" parent="1" source="lf7gtlG47ufux9Utgd1f-1" target="lf7gtlG47ufux9Utgd1f-188" edge="1">
          <mxGeometry width="50" height="50" relative="1" as="geometry">
            <mxPoint x="70" y="440" as="sourcePoint" />
            <mxPoint x="120" y="390" as="targetPoint" />
          </mxGeometry>
        </mxCell>
        <mxCell id="7oMthdcRvUUz_NhnxnWr-28" value="" style="endArrow=classic;html=1;rounded=0;fontSize=13;entryX=-0.03;entryY=0.919;entryDx=0;entryDy=0;entryPerimeter=0;" parent="1" target="lf7gtlG47ufux9Utgd1f-188" edge="1">
          <mxGeometry width="50" height="50" relative="1" as="geometry">
            <mxPoint x="990" y="620" as="sourcePoint" />
            <mxPoint x="150" y="500" as="targetPoint" />
            <Array as="points">
              <mxPoint x="1070" y="620" />
              <mxPoint x="1070" y="820" />
              <mxPoint x="30" y="820" />
              <mxPoint x="30" y="505" />
            </Array>
          </mxGeometry>
        </mxCell>
        <mxCell id="7oMthdcRvUUz_NhnxnWr-29" value="AO+" style="text;html=1;strokeColor=none;fillColor=none;align=center;verticalAlign=middle;whiteSpace=wrap;rounded=0;fontSize=13;" parent="1" vertex="1">
          <mxGeometry x="1000" y="575" width="60" height="30" as="geometry" />
        </mxCell>
        <mxCell id="7oMthdcRvUUz_NhnxnWr-30" value="&lt;b&gt;Charging Control switch&lt;/b&gt;" style="rounded=0;whiteSpace=wrap;html=1;fontSize=13;fillColor=#e3c800;fontColor=#000000;strokeColor=#B09500;" parent="1" vertex="1">
          <mxGeometry x="510" y="680" width="60" height="60" as="geometry" />
        </mxCell>
        <mxCell id="7oMthdcRvUUz_NhnxnWr-32" value="" style="endArrow=classic;html=1;rounded=0;fontSize=13;entryX=0.5;entryY=0;entryDx=0;entryDy=0;exitX=0.473;exitY=0.999;exitDx=0;exitDy=0;exitPerimeter=0;" parent="1" source="lf7gtlG47ufux9Utgd1f-1" target="7oMthdcRvUUz_NhnxnWr-30" edge="1">
          <mxGeometry width="50" height="50" relative="1" as="geometry">
            <mxPoint x="540" y="610" as="sourcePoint" />
            <mxPoint x="530" y="670" as="targetPoint" />
          </mxGeometry>
        </mxCell>
        <mxCell id="7oMthdcRvUUz_NhnxnWr-34" value="&lt;b&gt;ST Link Pinouts&lt;/b&gt;" style="rounded=0;whiteSpace=wrap;html=1;fontSize=13;fillColor=#b1ddf0;strokeColor=#10739e;" parent="1" vertex="1">
          <mxGeometry x="585" y="680" width="120" height="60" as="geometry" />
        </mxCell>
        <mxCell id="7oMthdcRvUUz_NhnxnWr-35" value="" style="endArrow=classic;startArrow=classic;html=1;rounded=0;fontSize=13;exitX=0.25;exitY=0;exitDx=0;exitDy=0;entryX=0.68;entryY=0.998;entryDx=0;entryDy=0;entryPerimeter=0;" parent="1" source="7oMthdcRvUUz_NhnxnWr-34" target="lf7gtlG47ufux9Utgd1f-1" edge="1">
          <mxGeometry width="50" height="50" relative="1" as="geometry">
            <mxPoint x="540" y="650" as="sourcePoint" />
            <mxPoint x="615" y="600" as="targetPoint" />
          </mxGeometry>
        </mxCell>
        <mxCell id="7oMthdcRvUUz_NhnxnWr-36" value="" style="endArrow=classic;html=1;rounded=0;fontSize=13;entryX=0.5;entryY=0;entryDx=0;entryDy=0;exitX=0.764;exitY=1.001;exitDx=0;exitDy=0;exitPerimeter=0;" parent="1" source="lf7gtlG47ufux9Utgd1f-1" target="7oMthdcRvUUz_NhnxnWr-34" edge="1">
          <mxGeometry width="50" height="50" relative="1" as="geometry">
            <mxPoint x="645" y="610" as="sourcePoint" />
            <mxPoint x="590" y="600" as="targetPoint" />
          </mxGeometry>
        </mxCell>
        <mxCell id="7oMthdcRvUUz_NhnxnWr-37" value="" style="endArrow=classic;html=1;rounded=0;fontSize=13;entryX=0.75;entryY=0;entryDx=0;entryDy=0;exitX=0.849;exitY=0.999;exitDx=0;exitDy=0;exitPerimeter=0;" parent="1" source="lf7gtlG47ufux9Utgd1f-1" target="7oMthdcRvUUz_NhnxnWr-34" edge="1">
          <mxGeometry width="50" height="50" relative="1" as="geometry">
            <mxPoint x="675" y="610" as="sourcePoint" />
            <mxPoint x="660" y="630" as="targetPoint" />
          </mxGeometry>
        </mxCell>
        <mxCell id="7oMthdcRvUUz_NhnxnWr-38" value="&lt;b&gt;SWDIO&lt;/b&gt;" style="text;html=1;strokeColor=none;fillColor=none;align=center;verticalAlign=middle;whiteSpace=wrap;rounded=0;fontSize=13;rotation=270;" parent="1" vertex="1">
          <mxGeometry x="571.25" y="627" width="60" height="30" as="geometry" />
        </mxCell>
        <mxCell id="7oMthdcRvUUz_NhnxnWr-39" value="&lt;b&gt;SCLK&lt;/b&gt;" style="text;html=1;strokeColor=none;fillColor=none;align=center;verticalAlign=middle;whiteSpace=wrap;rounded=0;fontSize=13;rotation=270;" parent="1" vertex="1">
          <mxGeometry x="605" y="627" width="60" height="30" as="geometry" />
        </mxCell>
        <mxCell id="7oMthdcRvUUz_NhnxnWr-40" value="&lt;b&gt;GND&lt;/b&gt;" style="text;html=1;strokeColor=none;fillColor=none;align=center;verticalAlign=middle;whiteSpace=wrap;rounded=0;fontSize=13;rotation=270;" parent="1" vertex="1">
          <mxGeometry x="634.38" y="627" width="60" height="30" as="geometry" />
        </mxCell>
        <mxCell id="7u2ONryfr6v7C_WAYZUB-8" value="" style="edgeStyle=none;orthogonalLoop=1;jettySize=auto;html=1;rounded=0;exitX=0.033;exitY=1.006;exitDx=0;exitDy=0;exitPerimeter=0;entryX=0;entryY=0.5;entryDx=0;entryDy=0;" parent="1" source="lf7gtlG47ufux9Utgd1f-67" target="lf7gtlG47ufux9Utgd1f-66" edge="1">
          <mxGeometry width="100" relative="1" as="geometry">
            <mxPoint x="39.900000000000006" y="223" as="sourcePoint" />
            <mxPoint x="814.561403508772" y="10" as="targetPoint" />
            <Array as="points">
              <mxPoint x="40" y="230" />
              <mxPoint x="40" y="229.28" />
              <mxPoint x="20" y="230" />
              <mxPoint x="20" y="40" />
              <mxPoint x="560" y="40" />
              <mxPoint x="560" y="10" />
              <mxPoint x="743" y="10" />
            </Array>
          </mxGeometry>
        </mxCell>
      </root>
    </mxGraphModel>
  </diagram>
</mxfile>
